<?xml version="1.0" encoding="utf-8"?>
<!-- Generator: Adobe Illustrator 15.1.0, SVG Export Plug-In . SVG Version: 6.00 Build 0)  -->
<!DOCTYPE svg PUBLIC "-//W3C//DTD SVG 1.1//EN" "http://www.w3.org/Graphics/SVG/1.1/DTD/svg11.dtd">
<svg version="1.1" id="Layer_1" xmlns="http://www.w3.org/2000/svg" xmlns:xlink="http://www.w3.org/1999/xlink" x="0px" y="0px"
	 width="498.5px" height="336px" viewBox="0 0 498.5 336" enable-background="new 0 0 498.5 336" xml:space="preserve">
<g opacity="0.2">
	<path fill="#5195AA" d="M170.314,115.788c0,17.162-7.237,40.448-21.685,69.856l-55.483,113.25H41.331l54.38-108.102
		c-5.396,2.21-11.875,3.312-19.468,3.312c-18.623,0-34.536-6.857-47.777-20.592c-14.205-14.704-21.31-33.699-21.31-56.989
		c0-25.245,7.834-45.345,23.509-60.296C45.609,42.012,64.97,34.902,88.738,34.902c23.758,0,43.115,6.985,58.049,20.955
		C162.469,70.562,170.314,90.544,170.314,115.788z M122.172,116.159c0-11.77-3.097-21.083-9.272-27.944
		c-6.18-6.864-14.246-10.299-24.164-10.299c-9.933,0-17.995,3.435-24.173,10.299c-6.185,6.861-9.267,16.175-9.267,27.944
		c0,11.525,3.082,20.772,9.267,27.757c6.178,6.986,14.24,10.479,24.173,10.479c9.918,0,17.984-3.43,24.164-10.295
		C119.074,137.239,122.172,127.923,122.172,116.159z"/>
	<path fill="#FC9DB5" d="M340.007,115.788c0,17.162-7.224,40.448-21.682,69.856l-55.489,113.25h-51.808l54.387-108.102
		c-5.397,2.21-11.89,3.312-19.479,3.312c-18.618,0-34.538-6.857-47.766-20.592c-14.208-14.707-21.316-33.701-21.316-56.991
		c0-25.245,7.834-45.345,23.52-60.296C215.308,42.01,234.662,34.9,258.431,34.9c23.761,0,43.12,6.985,58.067,20.955
		C332.168,70.562,340.007,90.544,340.007,115.788z M291.871,116.159c0-11.77-3.096-21.083-9.277-27.944
		c-6.179-6.864-14.231-10.299-24.166-10.299c-9.933,0-17.993,3.435-24.176,10.299c-6.173,6.861-9.264,16.175-9.264,27.944
		c0,11.525,3.091,20.772,9.264,27.757c6.183,6.986,14.243,10.479,24.176,10.479c9.935,0,17.987-3.43,24.166-10.295
		C288.778,137.239,291.871,127.923,291.871,116.159z"/>
	<path fill="#C6D673" d="M491.156,238.598c0,20.346-7.847,36.029-23.514,47.062c-14.7,10.294-33.93,15.441-57.695,15.441
		c-17.888,0-32.465-1.602-43.725-4.779c-14.21-4.166-26.822-11.768-37.849-22.795l31.229-31.256
		c12,12.015,29.032,18.014,51.068,18.014c22.543,0,33.814-6.617,33.814-19.852c0-10.535-6.752-16.426-20.216-17.649l-30.136-2.943
		c-37.229-3.678-55.854-21.567-55.854-53.679c0-19.116,7.473-34.314,22.414-45.593c13.725-10.295,30.871-15.441,51.452-15.441
		c32.821,0,57.198,7.482,73.12,22.429l-29.396,29.781c-9.552-8.583-24.375-12.872-44.466-12.872
		c-18.13,0-27.191,6.129-27.191,18.385c0,9.808,6.61,15.326,19.854,16.549l30.129,2.94
		C472.178,186.018,491.156,204.77,491.156,238.598z"/>
	<path fill="#43A3BA" d="M146.787,55.854c-14.934-13.971-34.291-20.957-58.049-20.957c-10.371,0-19.843,1.435-28.542,4.143
		c8.149,5.549,15.888,11.744,23.214,18.592c8.055,7.558,15.274,15.672,21.736,24.297c2.848,1.608,5.434,3.703,7.756,6.279
		c4.783,5.315,7.699,12.12,8.778,20.38c12.84,25.312,20.201,54.312,22.088,86.977l4.859-9.924
		c14.452-29.407,21.685-52.691,21.685-69.857C170.314,90.544,162.469,70.562,146.787,55.854z"/>
	<path fill="#E8809E" d="M191.529,66.489c8.312,18.707,19.499,35.677,33.506,50.944c-0.006-0.432-0.047-0.84-0.047-1.274
		c0-11.77,3.091-21.083,9.264-27.944c6.183-6.864,14.243-10.299,24.178-10.299c9.933,0,17.985,3.435,24.165,10.299
		c6.184,6.861,9.276,16.175,9.276,27.944c0,11.764-3.096,21.08-9.276,27.944c-3.867,4.299-8.479,7.248-13.824,8.856
		c17.236,9.888,35.812,16.361,55.727,19.428c10.301-23.211,15.51-42.109,15.51-56.595c0-25.242-7.843-45.227-23.515-59.936
		c-14.945-13.97-34.308-20.955-58.068-20.955c-23.767,0-43.12,7.11-58.055,21.327C197.044,59.399,194.149,62.854,191.529,66.489z"/>
	<g>
		<path fill="#ACB75C" d="M386.362,170.945c-1.382-2.271-2.142-4.938-2.142-8.095c0-12.252,9.062-18.385,27.189-18.385
			c20.091,0,34.918,4.289,44.466,12.87l29.396-29.779c-15.922-14.949-40.298-22.431-73.117-22.431
			c-20.584,0-37.731,5.148-51.455,15.443c-14.942,11.278-22.414,26.475-22.414,45.593c0,2.708,0.185,5.278,0.448,7.785
			c4.417,0.312,8.867,0.524,13.402,0.524C364.728,174.473,376.118,173.291,386.362,170.945z"/>
	</g>
</g>
</svg>
